HIERARCHY
ROOT Hips
{
	OFFSET 0.000000 0.000000 0.000000
	CHANNELS 6 Xposition Yposition Zposition Zrotation Yrotation Xrotation 
	JOINT LHipJoint
	{
		OFFSET 0.000000 0.000000 0.000000
		CHANNELS 3 Zrotation Yrotation Xrotation
		JOINT LeftUpLeg
		{
			OFFSET 1.363060 -1.794630 0.839290
			CHANNELS 3 Zrotation Yrotation Xrotation
			JOINT LeftLeg
			{
				OFFSET 2.448110 -6.726130 0.000000
				CHANNELS 3 Zrotation Yrotation Xrotation
				JOINT LeftFoot
				{
					OFFSET 2.562200 -7.039590 0.000000
					CHANNELS 3 Zrotation Yrotation Xrotation
					JOINT LeftToeBase
					{
						OFFSET 0.157640 -0.433110 2.322550
						CHANNELS 3 Zrotation Yrotation Xrotation
						End Site
						{
							OFFSET 0.000000 0.000000 0.000000
						}
					}
				}
			}
		}
	}
	JOINT RHipJoint
	{
		OFFSET 0.000000 0.000000 0.000000
		CHANNELS 3 Zrotation Yrotation Xrotation
		JOINT RightUpLeg
		{
			OFFSET -1.305520 -1.794630 0.839290
			CHANNELS 3 Zrotation Yrotation Xrotation
			JOINT RightLeg
			{
				OFFSET -2.542530 -6.985550 0.000000
				CHANNELS 3 Zrotation Yrotation Xrotation
				JOINT RightFoot
				{
					OFFSET -2.568260 -7.056230 0.000000
					CHANNELS 3 Zrotation Yrotation Xrotation
					JOINT RightToeBase
					{
						OFFSET -0.164730 -0.452590 2.363150
						CHANNELS 3 Zrotation Yrotation Xrotation
						End Site
						{
							OFFSET 0.000000 0.000000 0.000000
						}
					}
				}
			}
		}
	}
}
MOTION
Frames: 11
Frame Time: 0.008333
3.250240 17.196934 1.867564 -28.940428 -77.654212 34.623516 -11.143118 -1.912213 -3.275998 -7.221195 -6.488099 -8.040633 -1.276926 0.657887 16.932110 1.413156 7.429000 -10.102591 -0.407000 0.000000 -31.343000 6.822056 5.712060 4.200909 -9.292901 -8.223144 -81.937771 2.411943 1.235318 -2.185415 0.228068 -1.709014 6.964724 -1.719900 -0.000000 -84.216801
3.246533 17.189780 1.867537 -29.146604 -77.649466 34.706828 -11.138032 -1.822946 -3.039284 -7.184855 -6.373642 -8.501411 -1.280501 0.660323 17.487639 1.403730 7.312823 -10.343756 -0.441900 0.000000 -31.394900 6.930709 5.634977 3.887239 -8.449113 -7.922807 -77.951613 2.328838 1.490705 -6.389262 -0.026112 -2.556197 12.489103 -1.984500 0.000000 -85.712700
3.243924 17.182639 1.868396 -29.567015 -77.731960 34.914699 -11.138398 -1.740919 -2.859805 -7.161572 -6.225820 -8.732096 -1.283745 0.664252 17.918358 1.402561 7.260499 -10.557615 -0.474000 0.000000 -31.423100 7.036352 5.515033 3.537366 -7.301617 -7.613347 -75.422609 2.354814 1.412428 -7.497307 -0.238317 -2.783144 17.202169 -2.021900 0.000000 -86.086599
3.242808 17.175850 1.870423 -30.247058 -77.906657 35.346476 -11.158109 -1.691156 -2.804327 -7.123864 -6.006786 -8.713818 -1.290079 0.672248 18.195686 1.401522 7.223077 -10.735313 -0.500800 -0.000000 -31.468800 7.139570 5.327351 3.298090 -6.474007 -7.105384 -76.021377 2.389556 0.717072 -2.098196 -0.284426 -2.701190 18.849288 -1.998801 -0.000000 -84.901701
3.242935 17.169953 1.873004 -31.214402 -78.106967 35.895422 -11.176738 -1.639292 -2.778370 -7.072137 -5.704431 -8.408123 -1.294263 0.682245 18.308901 1.401360 7.207143 -10.857970 -0.520400 -0.000000 -31.527800 7.196398 5.174424 2.927516 -5.639331 -6.560444 -76.097360 2.326960 0.027672 3.079096 -0.343865 -2.630225 20.842223 -1.962000 -0.000001 -82.163800
3.243182 17.165804 1.877723 -32.593480 -78.322755 36.775975 -11.208578 -1.585824 -2.768064 -6.954121 -5.289120 -7.982404 -1.295296 0.694328 18.327121 1.394444 7.157578 -10.942557 -0.532600 0.000000 -31.614400 7.210552 5.043282 2.497829 -4.842193 -5.943669 -75.627624 2.191827 -0.571596 7.681320 -0.422746 -2.615991 22.939388 -1.935800 -0.000000 -78.560800
3.243408 17.163759 1.884219 -34.259359 -78.566639 37.913883 -11.244934 -1.528596 -2.766967 -6.809412 -4.810964 -7.471866 -1.293615 0.704197 18.228074 1.386073 7.110922 -10.973531 -0.536600 -0.000000 -31.715700 7.201720 4.923462 2.046640 -4.040211 -5.286558 -74.752400 2.029939 -1.065788 11.715423 -0.493620 -2.498835 24.849194 -1.834400 0.000000 -75.063301
3.242814 17.163888 1.892212 -36.090223 -78.827933 39.238483 -11.285186 -1.465043 -2.760119 -6.653934 -4.311032 -6.954420 -1.289941 0.709855 18.039965 1.376762 7.068167 -10.956233 -0.533400 -0.000000 -31.821700 7.188803 4.803782 1.608757 -3.216844 -4.629574 -73.629676 1.872307 -1.467517 15.270704 -0.539869 -2.203197 26.402548 -1.614300 0.000000 -72.552500
3.240608 17.166099 1.900888 -37.923702 -79.090482 40.617388 -11.326694 -1.393270 -2.735913 -6.508417 -3.831671 -6.470055 -1.285143 0.709810 17.782805 1.367365 7.032973 -10.895789 -0.524100 0.000000 -31.925500 7.185689 4.678872 1.200112 -2.378902 -4.017761 -72.380762 1.730181 -1.802695 18.488817 -0.552820 -1.689042 27.523612 -1.251800 -0.000001 -71.492201
3.236548 17.169904 1.909306 -39.593410 -79.335088 41.887603 -11.366269 -1.313202 -2.687805 -6.389918 -3.408742 -6.028343 -1.280026 0.703819 17.472912 1.358231 7.006081 -10.797909 -0.509500 -0.000000 -32.028400 7.200119 4.549297 0.821540 -1.545015 -3.495838 -71.075794 1.602664 -2.095044 21.503561 -0.530853 -0.944333 28.200907 -0.742800 0.000001 -71.929400
3.229797 17.174788 1.916164 -40.883540 -79.539915 42.841621 -11.398565 -1.224527 -2.606413 -6.316074 -3.082445 -5.649628 -1.275849 0.691740 17.141844 1.349638 6.985588 -10.676939 -0.492000 -0.000000 -32.117000 7.238017 4.417532 0.475755 -0.748420 -3.106786 -69.768590 1.484440 -2.360951 24.412889 -0.477024 0.018474 28.463828 -0.103500 -0.000000 -73.592800
